<svg width="44" height="44" viewBox="0 0 44 44" fill="none" xmlns="http://www.w3.org/2000/svg">
<path d="M16.7199 16.7199V15.2199C15.8915 15.2199 15.2199 15.8915 15.2199 16.7199H16.7199ZM16.8952 16.7199H18.3952C18.3952 15.8915 17.7236 15.2199 16.8952 15.2199V16.7199ZM27.2799 16.7199V15.2199C26.4515 15.2199 25.7799 15.8915 25.7799 16.7199H27.2799ZM27.4357 16.7199H28.9357C28.9357 15.8915 28.2642 15.2199 27.4357 15.2199V16.7199ZM16.8952 16.8608V18.3608C17.7236 18.3608 18.3952 17.6893 18.3952 16.8608H16.8952ZM16.7199 16.8608H15.2199C15.2199 17.6893 15.8915 18.3608 16.7199 18.3608V16.8608ZM27.4357 16.8608V18.3608C28.2642 18.3608 28.9357 17.6893 28.9357 16.8608H27.4357ZM27.2799 16.8608H25.7799C25.7799 17.6893 26.4515 18.3608 27.2799 18.3608V16.8608ZM17.1739 26.5622C16.7379 25.8578 15.8134 25.6402 15.109 26.0763C14.4046 26.5123 14.187 27.4368 14.6231 28.1412L17.1739 26.5622ZM29.3767 28.1412C29.8128 27.4368 29.5952 26.5123 28.8908 26.0763C28.1864 25.6402 27.2619 25.8578 26.8259 26.5622L29.3767 28.1412ZM38.0999 21.9999C38.0999 30.8917 30.8917 38.0999 21.9999 38.0999V41.0999C32.5485 41.0999 41.0999 32.5485 41.0999 21.9999H38.0999ZM21.9999 38.0999C13.1081 38.0999 5.8999 30.8917 5.8999 21.9999H2.8999C2.8999 32.5485 11.4513 41.0999 21.9999 41.0999V38.0999ZM5.8999 21.9999C5.8999 13.1081 13.1081 5.8999 21.9999 5.8999V2.8999C11.4513 2.8999 2.8999 11.4513 2.8999 21.9999H5.8999ZM21.9999 5.8999C30.8917 5.8999 38.0999 13.1081 38.0999 21.9999H41.0999C41.0999 11.4513 32.5485 2.8999 21.9999 2.8999V5.8999ZM16.7199 18.2199H16.8952V15.2199H16.7199V18.2199ZM27.2799 18.2199H27.4357V15.2199H27.2799V18.2199ZM15.3952 16.7199V16.8608H18.3952V16.7199H15.3952ZM16.8952 15.3608H16.7199V18.3608H16.8952V15.3608ZM18.2199 16.8608V16.7199H15.2199V16.8608H18.2199ZM25.9357 16.7199V16.8608H28.9357V16.7199H25.9357ZM27.4357 15.3608H27.2799V18.3608H27.4357V15.3608ZM28.7799 16.8608V16.7199H25.7799V16.8608H28.7799ZM21.9999 29.2998C19.9889 29.2998 18.2024 28.2237 17.1739 26.5622L14.6231 28.1412C16.161 30.6257 18.8807 32.2998 21.9999 32.2998V29.2998ZM26.8259 26.5622C25.7974 28.2237 24.011 29.2998 21.9999 29.2998V32.2998C25.1191 32.2998 27.8388 30.6257 29.3767 28.1412L26.8259 26.5622Z" fill="#FFAB04"/>
</svg>
