<svg width="44" height="44" viewBox="0 0 44 44" fill="none" xmlns="http://www.w3.org/2000/svg">
<path d="M21.5976 37.6951C12.7071 37.6951 5.5 30.488 5.5 21.5976C5.5 12.7071 12.7071 5.5 21.5976 5.5C28.3533 5.5 34.137 9.66156 36.525 15.561M7.5122 27.6341H12.2073C14.0595 27.6341 15.561 26.1327 15.561 24.2805V19.9207C15.561 18.0686 17.0625 16.5671 18.9146 16.5671H22.2683C24.1205 16.5671 25.6219 15.0656 25.6219 13.2134V7.5122M32.061 28.0366V27.9155M38.5 27.8966C38.5 32.096 32.061 37.6951 32.061 37.6951C32.061 37.6951 25.622 32.096 25.622 27.8966C25.622 24.4177 28.5048 21.5976 32.061 21.5976C35.6172 21.5976 38.5 24.4177 38.5 27.8966Z" stroke="#FFAB04" stroke-width="3" stroke-linecap="round" stroke-linejoin="round"/>
</svg>
