<svg width="27" height="27" viewBox="0 0 27 27" fill="none" xmlns="http://www.w3.org/2000/svg">
<path d="M15.5085 25.1809V26.8328C14.8399 26.933 14.1647 26.9831 13.4886 26.9829H13.485C12.8102 26.9831 12.1362 26.9329 11.4688 26.8328V25.1975L11.5063 25.2076C11.502 25.1614 11.5006 25.1145 11.5006 25.0676C11.5006 24.0116 12.39 23.156 13.4865 23.156C14.583 23.156 15.471 24.0123 15.471 25.0676C15.471 25.108 15.471 25.1484 15.4666 25.1881C15.4807 25.1864 15.4947 25.184 15.5085 25.1809Z" fill="#97C0F2"/>
<path d="M26.9785 13.4896C26.9785 13.5134 26.9785 13.538 26.9785 13.5618C26.9785 13.8987 26.9627 14.2326 26.9374 14.5638C26.92 14.7912 26.8175 15.0037 26.6504 15.1589C26.4833 15.3141 26.2638 15.4007 26.0357 15.4013H23.0002C22.3155 15.4 21.6408 15.2369 21.0311 14.9252C20.4215 14.6136 19.8942 14.1622 19.4922 13.6079L19.4583 13.5618C18.9976 12.9389 18.443 12.3913 17.8143 11.9387C17.5785 11.7676 17.3325 11.611 17.0777 11.4698C16.7375 11.2803 16.3829 11.1178 16.0173 10.9836C15.8509 10.923 15.6814 10.8682 15.5088 10.8191C14.8854 10.64 14.2413 10.543 13.5928 10.5306C13.5589 10.5306 13.5207 10.5306 13.4896 10.5306H13.4536H13.3252C12.698 10.5407 12.0746 10.6299 11.4698 10.796C11.3255 10.835 11.1877 10.8776 11.0492 10.9252C10.3694 11.1562 9.72667 11.4847 9.14121 11.9005C8.49255 12.3604 7.92108 12.9204 7.44815 13.5596L7.41425 13.6058C7.01235 14.1606 6.48488 14.6126 5.87495 14.9246C5.26501 15.2367 4.58991 15.4 3.90478 15.4013H0.942832C0.714746 15.4007 0.495265 15.3141 0.328144 15.1589C0.161022 15.0037 0.0585368 14.7912 0.0411181 14.5638C0.0158701 14.2326 0.00144274 13.8987 0 13.5618C0 13.538 0 13.5134 0 13.4896C0 13.0881 0.0173124 12.6906 0.0519382 12.2972C0.071254 12.0717 0.174435 11.8615 0.341109 11.7084C0.507783 11.5552 0.725834 11.4701 0.952209 11.4698H7.74897C7.82746 11.4698 7.90419 11.4466 7.96946 11.403C8.03473 11.3594 8.0856 11.2974 8.11564 11.2249C8.14568 11.1524 8.15354 11.0726 8.13822 10.9956C8.1229 10.9186 8.08509 10.8479 8.02958 10.7924L3.23968 6.00253C3.07898 5.84164 2.98472 5.62616 2.97563 5.39894C2.96654 5.17173 3.04329 4.94941 3.19062 4.7762C3.45176 4.46841 3.72588 4.17289 4.01299 3.88963C4.2645 3.641 4.52588 3.40223 4.79712 3.17331C4.97017 3.02769 5.19153 2.95224 5.4175 2.96186C5.64346 2.97148 5.85761 3.06546 6.01768 3.22525L10.7924 8C10.8479 8.05552 10.9186 8.09333 10.9956 8.10865C11.0726 8.12397 11.1524 8.11611 11.2249 8.08607C11.2974 8.05603 11.3594 8.00515 11.403 7.93988C11.4466 7.87461 11.4698 7.79788 11.4698 7.71939V0.95221C11.4701 0.725835 11.5552 0.507784 11.7084 0.34111C11.8616 0.174436 12.0717 0.0712546 12.2972 0.0519388C12.6906 0.017313 13.0881 0 13.4896 0C13.8912 0 14.2887 0.017313 14.6821 0.0519388C14.9076 0.0712546 15.1177 0.174436 15.2709 0.34111C15.4241 0.507784 15.5092 0.725835 15.5095 0.95221V7.66096C15.5094 7.73945 15.5327 7.81618 15.5763 7.88145C15.6199 7.94672 15.6819 7.9976 15.7544 8.02764C15.8269 8.05768 15.9067 8.06553 15.9837 8.05021C16.0606 8.03489 16.1314 7.99708 16.1868 7.94157L20.9291 3.19856C21.0895 3.03877 21.304 2.94487 21.5302 2.93539C21.7564 2.92591 21.9779 3.00153 22.1511 3.14734C22.4584 3.40463 22.7537 3.67539 23.037 3.95961C23.301 4.22363 23.5542 4.49871 23.7966 4.78485C23.944 4.9581 24.0208 5.18059 24.0114 5.4079C24.002 5.63522 23.9073 5.85065 23.7461 6.01118L18.962 10.7953C18.9064 10.8508 18.8686 10.9215 18.8533 10.9985C18.838 11.0755 18.8458 11.1553 18.8759 11.2278C18.9059 11.3003 18.9568 11.3623 19.0221 11.4059C19.0873 11.4495 19.1641 11.4727 19.2426 11.4727H26.0278C26.2542 11.4729 26.4722 11.5581 26.6389 11.7112C26.8056 11.8644 26.9087 12.0745 26.9281 12.3001C26.9617 12.6916 26.9785 13.0881 26.9785 13.4896Z" fill="#FFAB04"/>
<path d="M23.5408 20.7495C23.7619 20.9711 23.89 21.2688 23.8987 21.5817C23.9074 21.8946 23.7961 22.199 23.5877 22.4325C23.4256 22.6157 23.2573 22.7944 23.0827 22.9685C22.8755 23.1781 22.6615 23.3813 22.4407 23.578C22.207 23.7849 21.9031 23.8949 21.591 23.8855C21.279 23.8761 20.9823 23.7481 20.7614 23.5275L14.3642 17.1239C14.1344 16.8948 13.8231 16.7662 13.4986 16.7662C13.1741 16.7662 12.8628 16.8948 12.633 17.1239L11.4737 18.2831L9.06073 20.6961L7.39725 22.3596L6.22357 23.5333C6.00335 23.7531 5.70777 23.8811 5.39675 23.8911C5.08572 23.9011 4.78251 23.7926 4.54855 23.5874C4.3509 23.4123 4.15853 23.2313 3.97145 23.0442C3.75985 22.8336 3.55571 22.6171 3.35901 22.395C3.15361 22.161 3.04491 21.8576 3.05496 21.5464C3.06501 21.2352 3.19305 20.9395 3.41311 20.7192L10.1406 13.9917C10.3252 13.836 10.5207 13.6938 10.7257 13.5661L10.7718 13.5372C11.5839 13.0425 12.5166 12.7809 13.4676 12.7813H13.4907C13.7207 12.7818 13.9504 12.7982 14.1781 12.8303C14.6369 12.8927 15.0851 13.0169 15.5105 13.1996C15.7488 13.3025 15.9791 13.4231 16.1994 13.5603L16.2095 13.5668C16.3852 13.6763 16.5539 13.7968 16.7145 13.9275L17.508 14.721L18.1933 15.4056L23.5408 20.7495Z" fill="#688EBD"/>
</svg>
