<svg width="200" height="27" viewBox="0 0 200 27" fill="none" xmlns="http://www.w3.org/2000/svg">
<path d="M15.5087 24.7442V26.3675C14.8401 26.4659 14.165 26.5152 13.4889 26.5149H13.4853C12.8104 26.5151 12.1365 26.4659 11.4691 26.3675V24.7605L11.5066 24.7704C11.5022 24.725 11.5008 24.679 11.5008 24.6329C11.5008 23.5951 12.3902 22.7544 13.4867 22.7544C14.5832 22.7544 15.4712 23.5958 15.4712 24.6329C15.4712 24.6726 15.4712 24.7123 15.4669 24.7513C15.481 24.7496 15.4949 24.7473 15.5087 24.7442Z" fill="#1A2D42"/>
<path d="M26.9786 13.2558C26.9786 13.2792 26.9786 13.3033 26.9786 13.3267C26.9786 13.6577 26.9627 13.9859 26.9374 14.3113C26.92 14.5348 26.8175 14.7436 26.6504 14.8961C26.4833 15.0487 26.2638 15.1337 26.0357 15.1343H23.0002C22.3155 15.1331 21.6408 14.9728 21.0311 14.6665C20.4215 14.3603 19.8942 13.9167 19.4922 13.3721L19.4583 13.3267C18.9976 12.7146 18.443 12.1765 17.8143 11.7317C17.5785 11.5636 17.3325 11.4097 17.0777 11.271C16.7375 11.0848 16.3829 10.925 16.0173 10.7932C15.8509 10.7337 15.6814 10.6798 15.5088 10.6316C14.8854 10.4556 14.2413 10.3603 13.5928 10.348C13.5589 10.348 13.5207 10.348 13.4896 10.348H13.4536H13.3252C12.698 10.358 12.0746 10.4456 11.4698 10.6089C11.3255 10.6472 11.1877 10.689 11.0492 10.7358C10.3694 10.9628 9.72668 11.2857 9.14121 11.6942C8.49256 12.1461 7.92108 12.6964 7.44816 13.3246L7.41425 13.3699C7.01235 13.9152 6.48488 14.3593 5.87495 14.6659C5.26501 14.9725 4.58991 15.133 3.90478 15.1343H0.942832C0.714746 15.1337 0.495265 15.0487 0.328144 14.8961C0.161022 14.7436 0.0585368 14.5348 0.0411181 14.3113C0.0158701 13.9859 0.00144274 13.6577 0 13.3267C0 13.3033 0 13.2792 0 13.2558C0 12.8612 0.0173124 12.4706 0.0519383 12.084C0.071254 11.8624 0.174435 11.6559 0.341109 11.5054C0.507783 11.3549 0.725834 11.2712 0.95221 11.271H7.74897C7.82746 11.271 7.90419 11.2481 7.96946 11.2053C8.03473 11.1625 8.0856 11.1016 8.11564 11.0303C8.14569 10.9591 8.15354 10.8806 8.13822 10.805C8.1229 10.7294 8.08509 10.6599 8.02958 10.6053L3.23968 5.89848C3.07898 5.74037 2.98472 5.52863 2.97563 5.30536C2.96654 5.08208 3.04329 4.86362 3.19062 4.6934C3.45176 4.39095 3.72588 4.10056 4.01299 3.82221C4.2645 3.57788 4.52588 3.34325 4.79712 3.1183C4.97017 2.97521 5.19153 2.90107 5.4175 2.91052C5.64347 2.91997 5.85762 3.01232 6.01768 3.16934L10.7924 7.86133C10.8479 7.91588 10.9186 7.95303 10.9956 7.96809C11.0726 7.98314 11.1524 7.97542 11.2249 7.9459C11.2974 7.91638 11.3594 7.86639 11.403 7.80225C11.4466 7.73811 11.4698 7.66271 11.4698 7.58558V0.935704C11.4701 0.713253 11.5552 0.498982 11.7084 0.335197C11.8616 0.171413 12.0717 0.0700194 12.2972 0.0510385C12.6906 0.0170129 13.0881 0 13.4896 0C13.8912 0 14.2887 0.0170129 14.6821 0.0510385C14.9076 0.0700194 15.1177 0.171413 15.2709 0.335197C15.4241 0.498982 15.5092 0.713253 15.5095 0.935704V7.52816C15.5095 7.60529 15.5327 7.68069 15.5763 7.74483C15.6199 7.80897 15.6819 7.85896 15.7544 7.88848C15.8269 7.918 15.9067 7.92572 15.9837 7.91067C16.0607 7.89561 16.1314 7.85846 16.1868 7.80391L20.9291 3.14311C21.0895 2.98609 21.304 2.89382 21.5302 2.88451C21.7564 2.87519 21.9779 2.9495 22.1511 3.09278C22.4584 3.34561 22.7537 3.61167 23.037 3.89097C23.301 4.15041 23.5542 4.42073 23.7966 4.70191C23.9441 4.87216 24.0208 5.09078 24.0114 5.31416C24.002 5.53754 23.9073 5.74923 23.7461 5.90698L18.962 10.6082C18.9064 10.6627 18.8686 10.7322 18.8533 10.8078C18.838 10.8835 18.8459 10.9619 18.8759 11.0331C18.9059 11.1044 18.9568 11.1653 19.0221 11.2081C19.0873 11.251 19.1641 11.2738 19.2426 11.2738H26.0278C26.2542 11.2741 26.4722 11.3577 26.6389 11.5082C26.8056 11.6588 26.9087 11.8652 26.9281 12.0869C26.9617 12.4716 26.9786 12.8612 26.9786 13.2558Z" fill="#FFAB04"/>
<path d="M23.5412 20.3897C23.7624 20.6074 23.8904 20.9 23.8991 21.2074C23.9078 21.5149 23.7966 21.814 23.5881 22.0435C23.4261 22.2235 23.2577 22.3991 23.0832 22.5702C22.8759 22.7762 22.6619 22.9759 22.4411 23.1692C22.2074 23.3725 21.9035 23.4806 21.5915 23.4714C21.2794 23.4621 20.9827 23.3363 20.7618 23.1196L14.3647 16.8269C14.1348 16.6019 13.8235 16.4755 13.499 16.4755C13.1745 16.4755 12.8632 16.6019 12.6334 16.8269L11.4741 17.9661L9.06115 20.3373L7.39767 21.9719L6.224 23.1252C6.00377 23.3413 5.7082 23.467 5.39717 23.4768C5.08615 23.4867 4.78294 23.38 4.54898 23.1784C4.35132 23.0064 4.15896 22.8284 3.97188 22.6446C3.76028 22.4376 3.55613 22.225 3.35944 22.0066C3.15404 21.7767 3.04534 21.4786 3.05539 21.1728C3.06544 20.867 3.19348 20.5764 3.41354 20.3599L10.141 13.7491C10.3256 13.5961 10.5211 13.4563 10.7261 13.3308L10.7722 13.3025C11.5844 12.8162 12.517 12.5592 13.468 12.5596H13.4911C13.7211 12.5602 13.9508 12.5763 14.1786 12.6078C14.6373 12.6691 15.0855 12.7912 15.5109 12.9707C15.7492 13.0718 15.9795 13.1903 16.1998 13.3251L16.2099 13.3315C16.3857 13.4391 16.5543 13.5575 16.7149 13.686L17.5084 14.4657L18.1937 15.1384L23.5412 20.3897Z" fill="#688EBD"/>
<path d="M194.556 26.0588C193.447 26.0588 192.416 25.8253 191.462 25.3583C190.509 24.8913 189.701 24.254 189.039 23.4464C187.959 22.1426 187.419 20.6344 187.419 18.922V14.383H184.719V12.0186H187.419V4.86719H189.798V12.0186H197.402V14.383H189.798V18.922C189.798 19.7977 190.012 20.5955 190.44 21.3155C190.869 22.0355 191.443 22.6096 192.163 23.0377C192.883 23.4658 193.681 23.6799 194.556 23.6799C195.237 23.6799 195.875 23.5485 196.468 23.2858C197.062 23.0231 197.679 22.5512 198.322 21.8701L200 23.5485C199.154 24.434 198.288 25.0761 197.402 25.4751C196.517 25.8643 195.568 26.0588 194.556 26.0588Z" fill="#1A2D42"/>
<path d="M177.874 26.0589C176.804 26.0589 175.807 25.8448 174.882 25.4167C173.968 24.9789 173.092 24.2832 172.255 23.3296L173.948 21.6512C174.59 22.4004 175.223 22.9259 175.846 23.2275C176.468 23.5291 177.145 23.6799 177.874 23.6799C178.867 23.6799 179.777 23.3929 180.604 22.8188C180.866 22.6437 181.085 22.4491 181.26 22.235C181.445 22.021 181.538 21.7826 181.538 21.5199C181.538 21.1988 181.426 20.9264 181.202 20.7026C180.978 20.4691 180.686 20.2745 180.326 20.1188C179.976 19.9534 179.631 19.8318 179.29 19.7539C178.872 19.6566 178.434 19.6031 177.976 19.5934C177.529 19.5739 177.067 19.5155 176.59 19.4182C175.802 19.2431 175.062 18.9123 174.372 18.4258C173.69 17.9393 173.228 17.2728 172.985 16.4263C172.917 16.1539 172.883 15.8814 172.883 15.609C172.883 15.1809 172.951 14.7771 173.087 14.3976C173.35 13.736 173.744 13.2154 174.269 12.836C174.795 12.4468 175.374 12.1744 176.006 12.0187C176.648 11.863 177.271 11.7852 177.874 11.7852C178.76 11.7852 179.596 11.936 180.385 12.2376C181.182 12.5392 182.01 13.0646 182.866 13.8138L181.187 15.4776C180.117 14.5922 179.013 14.1495 177.874 14.1495C177.514 14.1495 177.12 14.1982 176.692 14.2955C176.264 14.3928 175.914 14.5484 175.641 14.7625C175.379 14.9668 175.247 15.249 175.247 15.609C175.247 15.9885 175.408 16.295 175.729 16.5285C176.42 16.976 177.247 17.2096 178.21 17.229C179.436 17.2874 180.531 17.5696 181.494 18.0755C182.039 18.348 182.525 18.7031 182.953 19.1409C183.586 19.8123 183.902 20.6053 183.902 21.5199C183.902 22.4832 183.566 23.3005 182.895 23.9718C182.224 24.6432 181.45 25.1589 180.574 25.5189C179.708 25.8789 178.808 26.0589 177.874 26.0589Z" fill="#1A2D42"/>
<path d="M169.044 26.059H166.68V24.6871C166.573 24.8136 166.096 25.0763 165.25 25.4752C164.413 25.8644 163.508 26.059 162.535 26.059C161.562 26.059 160.652 25.8644 159.806 25.4752C158.969 25.0763 158.249 24.5314 157.646 23.8406C156.566 22.6243 156.026 21.194 156.026 19.5497V11.8145H158.39V19.5497C158.39 20.6881 158.794 21.6659 159.602 22.4833C160.419 23.2908 161.397 23.6946 162.535 23.6946C163.148 23.6946 163.722 23.573 164.257 23.3298C164.792 23.0768 165.25 22.7314 165.629 22.2935C166.33 21.5151 166.68 20.6005 166.68 19.5497V11.8145H169.044V26.059Z" fill="#1A2D42"/>
<path d="M152.377 26.0589H150.013V4.88184H152.377V26.0589Z" fill="#1A2D42"/>
<path d="M139.913 26.0589H137.549V11.7852H139.913V13.1571C140.03 13.0306 140.507 12.7727 141.343 12.3835C142.19 11.9846 143.1 11.7852 144.073 11.7852C145.484 11.7852 146.88 12.2862 148.261 13.2884L146.568 14.9814C145.722 14.4268 144.89 14.1495 144.073 14.1495C143.46 14.1495 142.886 14.276 142.351 14.529C141.815 14.7722 141.353 15.1128 140.964 15.5506C140.263 16.3387 139.913 17.2582 139.913 18.309V26.0589Z" fill="#1A2D42"/>
<path d="M127.639 26.2776C126.286 26.2776 125.056 25.9468 123.946 25.2851C122.837 24.6235 121.952 23.7381 121.29 22.6289C120.629 21.5197 120.298 20.2937 120.298 18.951C120.298 17.5985 120.629 16.3677 121.29 15.2585C121.952 14.1396 122.837 13.2493 123.946 12.5877C125.056 11.926 126.286 11.5952 127.639 11.5952C128.894 11.5952 130.047 11.8871 131.098 12.4709C132.158 13.045 133.024 13.8234 133.696 14.8061C134.367 15.7888 134.781 16.9029 134.936 18.1483L134.951 18.951L134.922 20.1186H122.793C122.939 21.0332 123.47 21.8943 124.384 22.7019C125.299 23.5094 126.384 23.9132 127.639 23.9132C128.865 23.9132 130.037 23.4365 131.156 22.4829L132.805 24.1613C131.93 24.93 131.078 25.4749 130.251 25.796C129.434 26.117 128.563 26.2776 127.639 26.2776ZM132.484 17.7542C132.338 16.8493 131.808 15.9931 130.894 15.1855C129.979 14.3682 128.894 13.9596 127.639 13.9596C126.384 13.9596 125.299 14.3682 124.384 15.1855C123.47 15.9931 122.939 16.8493 122.793 17.7542H132.484Z" fill="#1A2D42"/>
<path d="M110.3 26.0588C108.987 26.0588 107.79 25.7378 106.71 25.0956C105.63 24.4534 104.769 23.5923 104.127 22.5123C103.485 21.4323 103.163 20.2355 103.163 18.922C103.163 17.6085 103.485 16.4117 104.127 15.3317C104.769 14.2516 105.63 13.3906 106.71 12.7484C107.79 12.1062 108.987 11.7851 110.3 11.7851C111.41 11.7851 112.441 12.0186 113.394 12.4857C114.348 12.9527 114.903 13.2835 115.058 13.4781V4.86719H117.437V18.922C117.437 20.6344 116.897 22.1426 115.817 23.4464C115.156 24.254 114.348 24.8913 113.394 25.3583C112.441 25.8253 111.41 26.0588 110.3 26.0588ZM110.3 23.6799C111.176 23.6799 111.974 23.4658 112.694 23.0377C113.414 22.6096 113.988 22.0355 114.416 21.3155C114.844 20.5955 115.058 19.7977 115.058 18.922C115.058 18.0463 114.844 17.2484 114.416 16.5284C113.988 15.8084 113.414 15.2344 112.694 14.8063C111.974 14.3684 111.176 14.1495 110.3 14.1495C109.425 14.1495 108.627 14.3684 107.907 14.8063C107.187 15.2344 106.608 15.8084 106.17 16.5284C105.742 17.2484 105.528 18.0463 105.528 18.922C105.528 19.7977 105.742 20.5955 106.17 21.3155C106.608 22.0355 107.187 22.6096 107.907 23.0377C108.627 23.4658 109.425 23.6799 110.3 23.6799Z" fill="#1A2D42"/>
<path d="M100.04 26.059H97.6758V18.3237C97.6758 17.1853 97.272 16.2124 96.4644 15.4048C95.6569 14.5875 94.679 14.1788 93.5309 14.1788C92.9179 14.1788 92.3438 14.3053 91.8087 14.5583C91.2736 14.8015 90.8163 15.1421 90.4368 15.5799C89.7362 16.3583 89.386 17.2729 89.386 18.3237V26.059H87.0216V11.8145H89.386V13.1864C89.493 13.0599 89.9649 12.802 90.8017 12.4128C91.6482 12.0139 92.5579 11.8145 93.5309 11.8145C94.5039 11.8145 95.4088 12.0139 96.2455 12.4128C97.092 12.802 97.8169 13.342 98.4202 14.0329C99.5002 15.2491 100.04 16.6794 100.04 18.3237V26.059Z" fill="#1A2D42"/>
<path d="M76.0025 26.2776C74.65 26.2776 73.4192 25.9468 72.31 25.2851C71.2008 24.6235 70.3154 23.7381 69.6537 22.6289C68.9921 21.5197 68.6613 20.2889 68.6613 18.9364C68.6613 17.5937 68.9921 16.3677 69.6537 15.2585C70.3154 14.1396 71.2008 13.2493 72.31 12.5877C73.4192 11.926 74.65 11.5952 76.0025 11.5952C77.0728 11.5952 78.0993 11.8239 79.082 12.2812C80.0647 12.7385 80.9063 13.3758 81.6069 14.1931C82.1712 14.8742 82.5945 15.6137 82.8766 16.4115C83.1588 17.2094 83.3339 18.0413 83.4021 18.9072L84.0588 26.0587H81.6653L81.5485 23.9278C81.3636 24.2197 80.7215 24.6868 79.622 25.3289C78.5323 25.9614 77.3258 26.2776 76.0025 26.2776ZM76.0025 23.9132C76.9171 23.9132 77.749 23.6894 78.4982 23.2419C79.2571 22.7943 79.8604 22.1959 80.308 21.4467C80.7555 20.6878 80.9793 19.851 80.9793 18.9364C80.9793 18.0218 80.7555 17.1899 80.308 16.4407C79.8604 15.6818 79.2571 15.0785 78.4982 14.6309C77.749 14.1834 76.9171 13.9596 76.0025 13.9596C75.0879 13.9596 74.2511 14.1834 73.4922 14.6309C72.743 15.0785 72.1446 15.6818 71.697 16.4407C71.2494 17.1899 71.0257 18.0218 71.0257 18.9364C71.0257 19.851 71.2494 20.6878 71.697 21.4467C72.1446 22.1959 72.743 22.7943 73.4922 23.2419C74.2511 23.6894 75.0879 23.9132 76.0025 23.9132Z" fill="#1A2D42"/>
<path d="M58.0071 26.0587H55.7157L49.7319 9.07033L43.7334 26.0587H41.442L33.05 4.95459H35.6771L42.5512 22.7165L48.5643 4.95459H50.8848L56.8979 22.7165L63.7867 4.95459H66.3991L58.0071 26.0587Z" fill="#1A2D42"/>
</svg>
