<svg width="200" height="27" viewBox="0 0 200 27" fill="none" xmlns="http://www.w3.org/2000/svg">
<path d="M15.5085 25.1809V26.8328C14.8399 26.933 14.1647 26.9831 13.4886 26.9829H13.485C12.8102 26.9831 12.1362 26.9329 11.4688 26.8328V25.1975L11.5063 25.2076C11.502 25.1614 11.5006 25.1145 11.5006 25.0676C11.5006 24.0116 12.39 23.156 13.4865 23.156C14.583 23.156 15.471 24.0123 15.471 25.0676C15.471 25.108 15.471 25.1484 15.4666 25.1881C15.4807 25.1864 15.4947 25.184 15.5085 25.1809Z" fill="#97C0F2"/>
<path d="M26.9785 13.4896C26.9785 13.5134 26.9785 13.538 26.9785 13.5618C26.9785 13.8987 26.9627 14.2326 26.9374 14.5638C26.92 14.7912 26.8175 15.0037 26.6504 15.1589C26.4833 15.3141 26.2638 15.4007 26.0357 15.4013H23.0002C22.3155 15.4 21.6408 15.2369 21.0311 14.9252C20.4215 14.6136 19.8942 14.1622 19.4922 13.6079L19.4583 13.5618C18.9976 12.9389 18.443 12.3913 17.8143 11.9387C17.5785 11.7676 17.3325 11.611 17.0777 11.4698C16.7375 11.2803 16.3829 11.1178 16.0173 10.9836C15.8509 10.923 15.6814 10.8682 15.5088 10.8191C14.8854 10.64 14.2413 10.543 13.5928 10.5306C13.5589 10.5306 13.5207 10.5306 13.4896 10.5306H13.4536H13.3252C12.698 10.5407 12.0746 10.6299 11.4698 10.796C11.3255 10.835 11.1877 10.8776 11.0492 10.9252C10.3694 11.1562 9.72667 11.4847 9.14121 11.9005C8.49255 12.3604 7.92108 12.9204 7.44815 13.5596L7.41425 13.6058C7.01235 14.1606 6.48488 14.6126 5.87495 14.9246C5.26501 15.2367 4.58991 15.4 3.90478 15.4013H0.942832C0.714746 15.4007 0.495265 15.3141 0.328144 15.1589C0.161022 15.0037 0.0585368 14.7912 0.0411181 14.5638C0.0158701 14.2326 0.00144274 13.8987 0 13.5618C0 13.538 0 13.5134 0 13.4896C0 13.0881 0.0173124 12.6906 0.0519382 12.2972C0.071254 12.0717 0.174435 11.8615 0.341109 11.7084C0.507783 11.5552 0.725834 11.4701 0.952209 11.4698H7.74897C7.82746 11.4698 7.90419 11.4466 7.96946 11.403C8.03473 11.3594 8.0856 11.2974 8.11564 11.2249C8.14568 11.1524 8.15354 11.0726 8.13822 10.9956C8.1229 10.9186 8.08509 10.8479 8.02958 10.7924L3.23968 6.00253C3.07898 5.84164 2.98472 5.62616 2.97563 5.39894C2.96654 5.17173 3.04329 4.94941 3.19062 4.7762C3.45176 4.46841 3.72588 4.17289 4.01299 3.88963C4.2645 3.641 4.52588 3.40223 4.79712 3.17331C4.97017 3.02769 5.19153 2.95224 5.4175 2.96186C5.64346 2.97148 5.85761 3.06546 6.01768 3.22525L10.7924 8C10.8479 8.05552 10.9186 8.09333 10.9956 8.10865C11.0726 8.12397 11.1524 8.11611 11.2249 8.08607C11.2974 8.05603 11.3594 8.00515 11.403 7.93988C11.4466 7.87461 11.4698 7.79788 11.4698 7.71939V0.95221C11.4701 0.725835 11.5552 0.507784 11.7084 0.34111C11.8616 0.174436 12.0717 0.0712546 12.2972 0.0519388C12.6906 0.017313 13.0881 0 13.4896 0C13.8912 0 14.2887 0.017313 14.6821 0.0519388C14.9076 0.0712546 15.1177 0.174436 15.2709 0.34111C15.4241 0.507784 15.5092 0.725835 15.5095 0.95221V7.66096C15.5094 7.73945 15.5327 7.81618 15.5763 7.88145C15.6199 7.94672 15.6819 7.9976 15.7544 8.02764C15.8269 8.05768 15.9067 8.06553 15.9837 8.05021C16.0606 8.03489 16.1314 7.99708 16.1868 7.94157L20.9291 3.19856C21.0895 3.03877 21.304 2.94487 21.5302 2.93539C21.7564 2.92591 21.9779 3.00153 22.1511 3.14734C22.4584 3.40463 22.7537 3.67539 23.037 3.95961C23.301 4.22363 23.5542 4.49871 23.7966 4.78485C23.944 4.9581 24.0208 5.18059 24.0114 5.4079C24.002 5.63522 23.9073 5.85065 23.7461 6.01118L18.962 10.7953C18.9064 10.8508 18.8686 10.9215 18.8533 10.9985C18.838 11.0755 18.8458 11.1553 18.8759 11.2278C18.9059 11.3003 18.9568 11.3623 19.0221 11.4059C19.0873 11.4495 19.1641 11.4727 19.2426 11.4727H26.0278C26.2542 11.4729 26.4722 11.5581 26.6389 11.7112C26.8056 11.8644 26.9087 12.0745 26.9281 12.3001C26.9617 12.6916 26.9785 13.0881 26.9785 13.4896Z" fill="#FFAB04"/>
<path d="M23.5408 20.7495C23.7619 20.9711 23.89 21.2688 23.8987 21.5817C23.9074 21.8946 23.7961 22.199 23.5877 22.4325C23.4256 22.6157 23.2573 22.7944 23.0827 22.9685C22.8755 23.1781 22.6615 23.3813 22.4407 23.578C22.207 23.7849 21.9031 23.8949 21.591 23.8855C21.279 23.8761 20.9823 23.7481 20.7614 23.5275L14.3642 17.1239C14.1344 16.8948 13.8231 16.7662 13.4986 16.7662C13.1741 16.7662 12.8628 16.8948 12.633 17.1239L11.4737 18.2831L9.06073 20.6961L7.39725 22.3596L6.22357 23.5333C6.00335 23.7531 5.70777 23.8811 5.39675 23.8911C5.08572 23.9011 4.78251 23.7926 4.54855 23.5874C4.3509 23.4123 4.15853 23.2313 3.97145 23.0442C3.75985 22.8336 3.55571 22.6171 3.35901 22.395C3.15361 22.161 3.04491 21.8576 3.05496 21.5464C3.06501 21.2352 3.19305 20.9395 3.41311 20.7192L10.1406 13.9917C10.3252 13.836 10.5207 13.6938 10.7257 13.5661L10.7718 13.5372C11.5839 13.0425 12.5166 12.7809 13.4676 12.7813H13.4907C13.7207 12.7818 13.9504 12.7982 14.1781 12.8303C14.6369 12.8927 15.0851 13.0169 15.5105 13.1996C15.7488 13.3025 15.9791 13.4231 16.1994 13.5603L16.2095 13.5668C16.3852 13.6763 16.5539 13.7968 16.7145 13.9275L17.508 14.721L18.1933 15.4056L23.5408 20.7495Z" fill="#688EBD"/>
<path d="M194.556 23.9939C193.447 23.9939 192.416 23.7604 191.462 23.2934C190.509 22.8263 189.701 22.189 189.04 21.3814C187.96 20.0776 187.42 18.5695 187.42 16.857V12.3181H184.719V9.9537H187.42V2.80225H189.798V9.9537H197.402V12.3181H189.798V16.857C189.798 17.7327 190.013 18.5306 190.441 19.2506C190.869 19.9706 191.443 20.5447 192.163 20.9728C192.883 21.4009 193.681 21.6149 194.556 21.6149C195.237 21.6149 195.875 21.4836 196.468 21.2209C197.062 20.9582 197.68 20.4863 198.322 19.8052L200 21.4836C199.154 22.369 198.288 23.0112 197.402 23.4101C196.517 23.7993 195.568 23.9939 194.556 23.9939Z" fill="white"/>
<path d="M177.874 23.9939C176.804 23.9939 175.806 23.7799 174.882 23.3518C173.968 22.9139 173.092 22.2182 172.255 21.2647L173.948 19.5863C174.59 20.3355 175.223 20.8609 175.845 21.1625C176.468 21.4642 177.144 21.615 177.874 21.615C178.867 21.615 179.776 21.328 180.603 20.7539C180.866 20.5788 181.085 20.3842 181.26 20.1701C181.445 19.956 181.537 19.7177 181.537 19.455C181.537 19.1339 181.425 18.8614 181.202 18.6376C180.978 18.4041 180.686 18.2095 180.326 18.0539C179.976 17.8884 179.63 17.7668 179.29 17.689C178.871 17.5917 178.434 17.5382 177.976 17.5284C177.529 17.509 177.066 17.4506 176.59 17.3533C175.802 17.1782 175.062 16.8473 174.371 16.3609C173.69 15.8744 173.228 15.2079 172.985 14.3614C172.917 14.0889 172.883 13.8165 172.883 13.5441C172.883 13.1159 172.951 12.7122 173.087 12.3327C173.35 11.6711 173.744 11.1505 174.269 10.771C174.795 10.3818 175.373 10.1094 176.006 9.95373C176.648 9.79805 177.271 9.72021 177.874 9.72021C178.759 9.72021 179.596 9.87103 180.384 10.1727C181.182 10.4743 182.009 10.9997 182.865 11.7489L181.187 13.4127C180.117 12.5273 179.012 12.0846 177.874 12.0846C177.514 12.0846 177.12 12.1332 176.692 12.2305C176.264 12.3278 175.913 12.4835 175.641 12.6976C175.378 12.9019 175.247 13.184 175.247 13.5441C175.247 13.9235 175.408 14.23 175.729 14.4635C176.419 14.9111 177.246 15.1446 178.21 15.1641C179.436 15.2225 180.53 15.5046 181.494 16.0106C182.038 16.283 182.525 16.6382 182.953 17.076C183.586 17.7474 183.902 18.5403 183.902 19.455C183.902 20.4182 183.566 21.2355 182.895 21.9069C182.223 22.5782 181.45 23.0939 180.574 23.4539C179.708 23.8139 178.808 23.9939 177.874 23.9939Z" fill="white"/>
<path d="M169.045 23.9939H166.681V22.622C166.574 22.7485 166.097 23.0112 165.25 23.4101C164.414 23.7993 163.509 23.9939 162.536 23.9939C161.563 23.9939 160.653 23.7993 159.806 23.4101C158.97 23.0112 158.25 22.4663 157.646 21.7755C156.566 20.5593 156.026 19.129 156.026 17.4846V9.74939H158.391V17.4846C158.391 18.623 158.795 19.6009 159.602 20.4182C160.419 21.2258 161.397 21.6296 162.536 21.6296C163.149 21.6296 163.723 21.5079 164.258 21.2647C164.793 21.0117 165.25 20.6663 165.63 20.2285C166.33 19.4501 166.681 18.5355 166.681 17.4846V9.74939H169.045V23.9939Z" fill="white"/>
<path d="M152.377 23.994H150.013V2.81689H152.377V23.994Z" fill="white"/>
<path d="M139.913 23.9939H137.549V9.72021H139.913V11.0921C140.03 10.9656 140.507 10.7078 141.344 10.3186C142.19 9.91968 143.1 9.72021 144.073 9.72021C145.484 9.72021 146.88 10.2213 148.262 11.2235L146.569 12.9165C145.722 12.3619 144.89 12.0846 144.073 12.0846C143.46 12.0846 142.886 12.2111 142.351 12.464C141.815 12.7073 141.353 13.0478 140.964 13.4857C140.264 14.2738 139.913 15.1933 139.913 16.2441V23.9939Z" fill="white"/>
<path d="M127.639 24.2128C126.286 24.2128 125.055 23.882 123.946 23.2203C122.837 22.5587 121.952 21.6733 121.29 20.5641C120.628 19.4549 120.297 18.2289 120.297 16.8862C120.297 15.5337 120.628 14.3029 121.29 13.1937C121.952 12.0748 122.837 11.1845 123.946 10.5228C125.055 9.86121 126.286 9.5304 127.639 9.5304C128.894 9.5304 130.047 9.82229 131.098 10.4061C132.158 10.9801 133.024 11.7585 133.696 12.7413C134.367 13.724 134.78 14.838 134.936 16.0835L134.951 16.8862L134.921 18.0538H122.793C122.939 18.9684 123.469 19.8295 124.384 20.637C125.299 21.4446 126.384 21.8484 127.639 21.8484C128.865 21.8484 130.037 21.3716 131.156 20.4181L132.805 22.0965C131.93 22.8652 131.078 23.4101 130.251 23.7311C129.434 24.0522 128.563 24.2128 127.639 24.2128ZM132.484 15.6894C132.338 14.7845 131.808 13.9283 130.893 13.1207C129.979 12.3034 128.894 11.8948 127.639 11.8948C126.384 11.8948 125.299 12.3034 124.384 13.1207C123.469 13.9283 122.939 14.7845 122.793 15.6894H132.484Z" fill="white"/>
<path d="M110.3 23.9939C108.987 23.9939 107.79 23.6728 106.71 23.0306C105.63 22.3885 104.769 21.5274 104.127 20.4474C103.484 19.3673 103.163 18.1706 103.163 16.857C103.163 15.5435 103.484 14.3467 104.127 13.2667C104.769 12.1867 105.63 11.3256 106.71 10.6834C107.79 10.0413 108.987 9.72018 110.3 9.72018C111.409 9.72018 112.441 9.9537 113.394 10.4207C114.348 10.8878 114.902 11.2186 115.058 11.4132V2.80225H117.437V16.857C117.437 18.5695 116.897 20.0776 115.817 21.3814C115.155 22.189 114.348 22.8263 113.394 23.2934C112.441 23.7604 111.409 23.9939 110.3 23.9939ZM110.3 21.6149C111.176 21.6149 111.974 21.4009 112.694 20.9728C113.414 20.5447 113.988 19.9706 114.416 19.2506C114.844 18.5306 115.058 17.7327 115.058 16.857C115.058 15.9814 114.844 15.1835 114.416 14.4635C113.988 13.7435 113.414 13.1694 112.694 12.7413C111.974 12.3035 111.176 12.0845 110.3 12.0845C109.424 12.0845 108.627 12.3035 107.907 12.7413C107.187 13.1694 106.608 13.7435 106.17 14.4635C105.742 15.1835 105.528 15.9814 105.528 16.857C105.528 17.7327 105.742 18.5306 106.17 19.2506C106.608 19.9706 107.187 20.5447 107.907 20.9728C108.627 21.4009 109.424 21.6149 110.3 21.6149Z" fill="white"/>
<path d="M100.04 23.9939H97.6761V16.2587C97.6761 15.1203 97.2723 14.1473 96.4647 13.3397C95.6571 12.5224 94.6793 12.1137 93.5311 12.1137C92.9182 12.1137 92.3441 12.2402 91.8089 12.4932C91.2738 12.7365 90.8165 13.077 90.437 13.5149C89.7365 14.2932 89.3862 15.2078 89.3862 16.2587V23.9939H87.0219V9.74939H89.3862V11.1213C89.4932 10.9948 89.9651 10.737 90.8019 10.3478C91.6484 9.94885 92.5581 9.74939 93.5311 9.74939C94.5041 9.74939 95.409 9.94885 96.2458 10.3478C97.0923 10.737 97.8171 11.277 98.4204 11.9678C99.5004 13.184 100.04 14.6143 100.04 16.2587V23.9939Z" fill="white"/>
<path d="M76.0025 24.2128C74.6501 24.2128 73.4192 23.882 72.31 23.2203C71.2008 22.5587 70.3154 21.6733 69.6538 20.5641C68.9921 19.4549 68.6613 18.224 68.6613 16.8716C68.6613 15.5289 68.9921 14.3029 69.6538 13.1937C70.3154 12.0748 71.2008 11.1845 72.31 10.5228C73.4192 9.86121 74.6501 9.5304 76.0025 9.5304C77.0728 9.5304 78.0993 9.75905 79.082 10.2164C80.0647 10.6737 80.9064 11.311 81.6069 12.1283C82.1712 12.8094 82.5945 13.5488 82.8767 14.3467C83.1588 15.1445 83.334 15.9764 83.4021 16.8424L84.0588 23.9938H81.6653L81.5485 21.863C81.3637 22.1549 80.7215 22.6219 79.622 23.2641C78.5323 23.8966 77.3258 24.2128 76.0025 24.2128ZM76.0025 21.8484C76.9171 21.8484 77.749 21.6246 78.4982 21.1771C79.2571 20.7295 79.8604 20.1311 80.308 19.3819C80.7555 18.623 80.9793 17.7862 80.9793 16.8716C80.9793 15.957 80.7555 15.1251 80.308 14.3759C79.8604 13.6169 79.2571 13.0137 78.4982 12.5661C77.749 12.1185 76.9171 11.8948 76.0025 11.8948C75.0879 11.8948 74.2511 12.1185 73.4922 12.5661C72.743 13.0137 72.1446 13.6169 71.697 14.3759C71.2495 15.1251 71.0257 15.957 71.0257 16.8716C71.0257 17.7862 71.2495 18.623 71.697 19.3819C72.1446 20.1311 72.743 20.7295 73.4922 21.1771C74.2511 21.6246 75.0879 21.8484 76.0025 21.8484Z" fill="white"/>
<path d="M58.0067 23.9939H55.7153L49.7314 7.00551L43.733 23.9939H41.4416L33.0496 2.88977H35.6766L42.5508 20.6517L48.5638 2.88977H50.8844L56.8975 20.6517L63.7862 2.88977H66.3987L58.0067 23.9939Z" fill="white"/>
</svg>
